<svg xmlns="http://www.w3.org/2000/svg" width="50.523" height="50.523" viewBox="0 0 50.523 50.523">
  <path id="Icon_awesome-codepen" data-name="Icon awesome-codepen" d="M49.564,15.759,26.474.365a2.194,2.194,0,0,0-2.425,0L.959,15.759A2.207,2.207,0,0,0,0,17.564V32.957a2.207,2.207,0,0,0,.959,1.8l23.091,15.4a2.194,2.194,0,0,0,2.425,0l23.091-15.4a2.207,2.207,0,0,0,.959-1.8V17.564a2.207,2.207,0,0,0-.959-1.8ZM27.432,6.23l17,11.334-7.584,5.075-9.417-6.287Zm-4.342,0V16.351l-9.417,6.287L6.09,17.564ZM4.342,21.623,9.783,25.26,4.342,28.9ZM23.091,44.291l-17-11.334,7.584-5.075,9.417,6.287Zm2.171-13.9L17.593,25.26l7.669-5.131L32.93,25.26Zm2.171,13.9V34.17l9.417-6.287,7.584,5.075ZM46.181,28.9,40.74,25.26l5.441-3.637Z" transform="translate(0 0)"/>
</svg>
