<svg xmlns="http://www.w3.org/2000/svg" width="44.232" height="44.223" viewBox="0 0 44.232 44.223">
  <path id="Icon_awesome-instagram" data-name="Icon awesome-instagram" d="M22.116,13.011A11.338,11.338,0,1,0,33.454,24.349,11.32,11.32,0,0,0,22.116,13.011Zm0,18.709a7.371,7.371,0,1,1,7.371-7.371,7.385,7.385,0,0,1-7.371,7.371ZM36.562,12.547A2.645,2.645,0,1,1,33.918,9.9,2.638,2.638,0,0,1,36.562,12.547Zm7.509,2.684c-.168-3.543-.977-6.681-3.572-9.266s-5.723-3.395-9.266-3.572c-3.651-.207-14.594-.207-18.245,0-3.533.168-6.671.977-9.266,3.562S.328,11.679.15,15.221c-.207,3.651-.207,14.594,0,18.246.168,3.543.977,6.681,3.572,9.266s5.723,3.395,9.266,3.572c3.651.207,14.594.207,18.245,0,3.543-.168,6.68-.977,9.266-3.572s3.395-5.723,3.572-9.266c.207-3.651.207-14.585,0-18.236ZM39.355,37.384a7.463,7.463,0,0,1-4.2,4.2c-2.911,1.155-9.818.888-13.035.888s-10.134.257-13.035-.888a7.463,7.463,0,0,1-4.2-4.2c-1.155-2.911-.888-9.818-.888-13.035s-.257-10.134.888-13.035a7.463,7.463,0,0,1,4.2-4.2c2.911-1.155,9.818-.888,13.035-.888s10.134-.257,13.035.888a7.463,7.463,0,0,1,4.2,4.2c1.155,2.911.888,9.818.888,13.035S40.509,34.483,39.355,37.384Z" transform="translate(0.005 -2.238)"/>
</svg>
