<svg xmlns="http://www.w3.org/2000/svg" width="50.523" height="41.034" viewBox="0 0 50.523 41.034">
  <path id="Icon_awesome-twitter" data-name="Icon awesome-twitter" d="M45.33,13.607c.032.449.032.9.032,1.346,0,13.689-10.419,29.461-29.461,29.461A29.261,29.261,0,0,1,0,39.766a21.421,21.421,0,0,0,2.5.128,20.737,20.737,0,0,0,12.855-4.424A10.373,10.373,0,0,1,5.674,28.29a13.058,13.058,0,0,0,1.956.16,10.951,10.951,0,0,0,2.725-.353,10.356,10.356,0,0,1-8.3-10.162v-.128a10.428,10.428,0,0,0,4.68,1.314A10.37,10.37,0,0,1,3.526,5.272a29.433,29.433,0,0,0,21.35,10.836,11.689,11.689,0,0,1-.256-2.372A10.364,10.364,0,0,1,42.54,6.651a20.386,20.386,0,0,0,6.572-2.5A10.327,10.327,0,0,1,44.56,9.856a20.758,20.758,0,0,0,5.963-1.6,22.258,22.258,0,0,1-5.193,5.354Z" transform="translate(0 -3.381)"/>
</svg>
