<svg xmlns="http://www.w3.org/2000/svg" width="48.944" height="47.721" viewBox="0 0 48.944 47.721">
  <path id="Icon_awesome-github" data-name="Icon awesome-github" d="M16.371,38.988c0,.2-.227.355-.513.355-.326.03-.553-.128-.553-.355,0-.2.227-.355.513-.355C16.114,38.6,16.371,38.761,16.371,38.988ZM13.3,38.544c-.069.2.128.424.424.484a.463.463,0,0,0,.612-.2c.059-.2-.128-.424-.424-.513A.506.506,0,0,0,13.3,38.544Zm4.362-.168c-.286.069-.484.257-.454.484.03.2.286.326.582.257s.484-.257.454-.454S17.949,38.346,17.663,38.376ZM24.156.563A23.662,23.662,0,0,0,0,24.64a24.74,24.74,0,0,0,16.726,23.6c1.263.227,1.707-.553,1.707-1.194,0-.612-.03-3.987-.03-6.059,0,0-6.907,1.48-8.358-2.941,0,0-1.125-2.872-2.743-3.612,0,0-2.26-1.549.158-1.52a5.209,5.209,0,0,1,3.809,2.546c2.161,3.809,5.783,2.714,7.194,2.062A5.484,5.484,0,0,1,20.041,34.2C14.525,33.59,8.96,32.791,8.96,23.3a7.479,7.479,0,0,1,2.329-5.812,9.323,9.323,0,0,1,.257-6.7c2.062-.641,6.809,2.664,6.809,2.664a23.312,23.312,0,0,1,12.394,0s4.746-3.316,6.809-2.664a9.319,9.319,0,0,1,.257,6.7c1.579,1.747,2.546,3.108,2.546,5.812,0,9.522-5.812,10.282-11.328,10.9a5.836,5.836,0,0,1,1.678,4.579c0,3.325-.03,7.44-.03,8.249,0,.641.454,1.421,1.707,1.194A24.512,24.512,0,0,0,48.944,24.64C48.944,10.953,37.843.563,24.156.563ZM9.591,34.6c-.128.1-.1.326.069.513.158.158.385.227.513.1.128-.1.1-.326-.069-.513C9.947,34.537,9.72,34.468,9.591,34.6Zm-1.066-.8c-.069.128.03.286.227.385a.294.294,0,0,0,.424-.069c.069-.128-.03-.286-.227-.385C8.753,33.669,8.595,33.7,8.526,33.8Zm3.2,3.513c-.158.128-.1.424.128.612.227.227.513.257.641.1.128-.128.069-.424-.128-.612C12.147,37.182,11.851,37.152,11.723,37.31ZM10.6,35.86c-.158.1-.158.355,0,.582s.424.326.553.227a.45.45,0,0,0,0-.612C11.012,35.83,10.756,35.731,10.6,35.86Z" transform="translate(0 -0.563)"/>
</svg>
