<svg xmlns="http://www.w3.org/2000/svg" width="44.208" height="44.208" viewBox="0 0 44.208 44.208">
  <path id="Icon_awesome-linkedin" data-name="Icon awesome-linkedin" d="M41.05,2.25H3.148A3.171,3.171,0,0,0,0,5.437V43.27a3.171,3.171,0,0,0,3.148,3.187h37.9a3.18,3.18,0,0,0,3.158-3.187V5.437A3.18,3.18,0,0,0,41.05,2.25ZM13.361,40.142H6.809v-21.1h6.562v21.1ZM10.085,16.164a3.8,3.8,0,1,1,3.8-3.8A3.8,3.8,0,0,1,10.085,16.164ZM37.922,40.142H31.37V29.88c0-2.447-.049-5.6-3.4-5.6-3.414,0-3.937,2.664-3.937,5.417v10.44H17.476v-21.1h6.286v2.881h.089a6.9,6.9,0,0,1,6.207-3.4c6.631,0,7.865,4.371,7.865,10.055Z" transform="translate(0 -2.25)"/>
</svg>
